<?xml version="1.0" standalone="no"?><!DOCTYPE svg PUBLIC "-//W3C//DTD SVG 1.1//EN" "http://www.w3.org/Graphics/SVG/1.1/DTD/svg11.dtd"><svg class="icon" width="200px" height="200.00px" viewBox="0 0 1024 1024" version="1.1" xmlns="http://www.w3.org/2000/svg"><path fill="#333333" d="M892.16 384l-75.093333-74.24a42.666667 42.666667 0 0 0-60.586667 0l-276.053333 276.053333a44.8 44.8 0 0 0-11.52 21.76l-19.626667 94.72a42.666667 42.666667 0 0 0 42.666667 51.2h8.533333l95.146667-19.626666a42.666667 42.666667 0 0 0 21.333333-11.52l276.053333-276.053334A42.666667 42.666667 0 0 0 892.16 384z m-327.253333 267.093333l-18.773334 3.84 3.84-18.773333 236.8-236.8 14.933334 14.933333z"  /><path fill="#333333" d="M817.493333 565.76a42.666667 42.666667 0 0 0-42.666666 42.666667v166.4A78.933333 78.933333 0 0 1 696.32 853.333333H291.84A78.933333 78.933333 0 0 1 213.333333 774.826667V330.24A78.506667 78.506667 0 0 1 290.133333 251.733333a85.333333 85.333333 0 0 0 85.333334 80.64h238.08a85.333333 85.333333 0 0 0 85.333333-80.64 78.506667 78.506667 0 0 1 48.64 17.92 42.666667 42.666667 0 0 0 27.306667 10.24 42.666667 42.666667 0 0 0 27.306666-75.52 163.84 163.84 0 0 0-103.253333-37.973333 85.333333 85.333333 0 0 0-85.333333-81.066667H375.04a85.333333 85.333333 0 0 0-85.333333 81.066667A163.84 163.84 0 0 0 128 330.24v444.586667A163.84 163.84 0 0 0 291.84 938.666667h404.48a164.266667 164.266667 0 0 0 163.84-163.84v-166.4a42.666667 42.666667 0 0 0-42.666667-42.666667zM375.04 170.666667h238.08v76.373333H375.04z"  /><path fill="#333333" d="M512 458.666667a42.666667 42.666667 0 0 0-42.666667-42.666667H309.333333a42.666667 42.666667 0 0 0 0 85.333333H469.333333a42.666667 42.666667 0 0 0 42.666667-42.666666zM309.333333 586.666667a42.666667 42.666667 0 0 0 0 85.333333h55.466667a42.666667 42.666667 0 0 0 0-85.333333z"  /></svg>