<?xml version="1.0" standalone="no"?><!DOCTYPE svg PUBLIC "-//W3C//DTD SVG 1.1//EN" "http://www.w3.org/Graphics/SVG/1.1/DTD/svg11.dtd"><svg class="icon" width="200px" height="200.00px" viewBox="0 0 1024 1024" version="1.1" xmlns="http://www.w3.org/2000/svg"><path fill="#333333" d="M795.733333 469.333333L597.333333 588.373333v198.4l198.4-119.04V469.333333z"  /><path fill="#333333" d="M925.013333 303.786667a54.613333 54.613333 0 0 0-2.133333-11.52 40.106667 40.106667 0 0 0-17.493333-20.906667l-382.72-221.866667a42.666667 42.666667 0 0 0-42.666667 0L98.133333 270.08a40.106667 40.106667 0 0 0-17.493333 20.906667 54.613333 54.613333 0 0 0-2.133333 11.52 18.346667 18.346667 0 0 0 0 4.693333v401.066667a42.666667 42.666667 0 0 0 20.48 36.693333l384 229.12 6.4 2.56h3.413333A48.64 48.64 0 0 0 512 981.333333h3.413333l6.4-2.56 384-229.12a42.666667 42.666667 0 0 0 20.48-36.693333V308.48a18.346667 18.346667 0 0 0-1.28-4.693333z m-423.68-168.106667l315.306667 182.186667-315.306667 189.013333-315.306666-189.013333zM162.133333 402.773333l298.666667 177.92v282.453334l-298.666667-177.92z m678.4 282.453334l-296.533333 177.92v-282.453334l298.666667-177.92z"  /></svg>