<?xml version="1.0" standalone="no"?><!DOCTYPE svg PUBLIC "-//W3C//DTD SVG 1.1//EN" "http://www.w3.org/Graphics/SVG/1.1/DTD/svg11.dtd"><svg class="icon" width="200px" height="200.00px" viewBox="0 0 1024 1024" version="1.1" xmlns="http://www.w3.org/2000/svg"><path fill="#333333" d="M362.666667 85.333333h-128A149.333333 149.333333 0 0 0 85.333333 234.666667v128A149.333333 149.333333 0 0 0 234.666667 512h128A149.333333 149.333333 0 0 0 512 362.666667v-128A149.333333 149.333333 0 0 0 362.666667 85.333333zM426.666667 362.666667A64 64 0 0 1 362.666667 426.666667h-128A64 64 0 0 1 170.666667 362.666667v-128A64 64 0 0 1 234.666667 170.666667h128A64 64 0 0 1 426.666667 234.666667zM662.613333 438.613333a148.48 148.48 0 0 0 210.773334 0l48.64-48.213333a148.906667 148.906667 0 0 0 0-211.2l-48.64-48.64a149.333333 149.333333 0 0 0-210.773334 0L613.973333 179.2a148.906667 148.906667 0 0 0 0 213.333333z m11.52-199.253333l48.64-48.64a64.853333 64.853333 0 0 1 90.453334 0l48.64 48.64a64.426667 64.426667 0 0 1 0 90.453333l-48.64 48.64a66.133333 66.133333 0 0 1-90.453334 0L674.133333 329.813333a64.426667 64.426667 0 0 1 0-90.453333zM362.666667 554.666667h-128A149.333333 149.333333 0 0 0 85.333333 704v128A149.333333 149.333333 0 0 0 234.666667 981.333333h128a149.333333 149.333333 0 0 0 149.333333-149.333333v-128A149.333333 149.333333 0 0 0 362.666667 554.666667z m64 277.333333A64 64 0 0 1 362.666667 896h-128A64 64 0 0 1 170.666667 832v-128A64 64 0 0 1 234.666667 640h128a64 64 0 0 1 64 64zM832 554.666667h-128a149.333333 149.333333 0 0 0-149.333333 149.333333v128a149.333333 149.333333 0 0 0 149.333333 149.333333h128a149.333333 149.333333 0 0 0 149.333333-149.333333v-128a149.333333 149.333333 0 0 0-149.333333-149.333333z m64 277.333333a64 64 0 0 1-64 64h-128a64 64 0 0 1-64-64v-128a64 64 0 0 1 64-64h128a64 64 0 0 1 64 64z"  /></svg>