<?xml version="1.0" standalone="no"?><!DOCTYPE svg PUBLIC "-//W3C//DTD SVG 1.1//EN" "http://www.w3.org/Graphics/SVG/1.1/DTD/svg11.dtd"><svg class="icon" width="200px" height="200.00px" viewBox="0 0 1024 1024" version="1.1" xmlns="http://www.w3.org/2000/svg"><path fill="#333333" d="M512 64A448 448 0 1 0 960 512 448.426667 448.426667 0 0 0 512 64zM298.666667 804.693333a276.48 276.48 0 0 1 426.666666 0 360.106667 360.106667 0 0 1-426.666666 0z m489.386666-58.026666a362.24 362.24 0 0 0-552.106666 0 362.666667 362.666667 0 1 1 552.106666 0z"  /><path fill="#333333" d="M512 192a195.84 195.84 0 1 0 195.413333 195.413333A195.84 195.84 0 0 0 512 192z m0 305.92a110.506667 110.506667 0 1 1 110.08-110.506667A110.506667 110.506667 0 0 1 512 497.92z"  /></svg>