<?xml version="1.0" standalone="no"?><!DOCTYPE svg PUBLIC "-//W3C//DTD SVG 1.1//EN" "http://www.w3.org/Graphics/SVG/1.1/DTD/svg11.dtd"><svg class="icon" width="200px" height="200.00px" viewBox="0 0 1024 1024" version="1.1" xmlns="http://www.w3.org/2000/svg"><path fill="#333333" d="M917.333333 874.666667h-810.666666a42.666667 42.666667 0 0 0 0 85.333333h810.666666a42.666667 42.666667 0 0 0 0-85.333333zM279.466667 810.666667h465.066666a213.333333 213.333333 0 0 0 213.333334-213.333334V277.333333a213.333333 213.333333 0 0 0-213.333334-213.333333H279.466667a213.333333 213.333333 0 0 0-213.333334 213.333333V597.333333a213.333333 213.333333 0 0 0 213.333334 213.333334z m-128-533.333334a128 128 0 0 1 128-128h465.066666a128 128 0 0 1 128 128V597.333333a128 128 0 0 1-128 128H279.466667a128 128 0 0 1-128-128z"  /><path fill="#333333" d="M311.466667 464.213333h8.533333v73.386667a42.666667 42.666667 0 0 0 15.36 32 42.666667 42.666667 0 0 0 31.573333 14.506667h158.72a85.333333 85.333333 0 0 0 85.333334 77.226666h106.666666a85.333333 85.333333 0 0 0 85.333334-85.333333v-85.333333a85.333333 85.333333 0 0 0-85.333334-85.333334H610.133333a85.333333 85.333333 0 0 0-85.333333 85.333334v8.106666H405.333333v-34.56h12.8a85.333333 85.333333 0 0 0 85.333334-85.333333v-85.333333a85.333333 85.333333 0 0 0-85.333334-85.333334H311.466667a85.333333 85.333333 0 0 0-85.333334 85.333334v85.333333a85.333333 85.333333 0 0 0 85.333334 85.333333z m298.666666 26.453334h106.666667v85.333333h-106.666667z m-298.666666-197.12h106.666666v85.333333H311.466667z"  /></svg>